# xmcd
#
# Track frame offsets:
#	150
#	10247
#	28964
#	40381
#	54018
#	64385
#	76482
#	89344
#	111501
#	126753
#	150325
#	159657
#	168494
#	182606
#
# Disc length: 2832 seconds
#
# Revision: 1
# Processed by: cddbd v1.4PL0 Copyright (c) Steve Scherf et al.
# Submitted via: audiograbber 1.80.04
#
DISCID=b30b0e0e
DTITLE=Paul Esch - Miracle Music of Paul Esch
DYEAR=1900
DGENRE=Gospel
TTITLE0=I Choose
TTITLE1=Clothe Ourselves In Light
TTITLE2=Arise Into The Light I Am
TTITLE3=I Say Yes
TTITLE4=Transmutation
TTITLE5=Love Will set You Free
TTITLE6=Be God's Love
TTITLE7=The Beloved
TTITLE8=Peace, Joy, Love, Life and Light
TTITLE9=Heaven
TTITLE10=We Love You
TTITLE11=Let There Be More Light
TTITLE12=Ascension
TTITLE13=The Temple of the Holy Ghost
EXTD=Not really gospel or country, but inspirational Music
EXTT0=
EXTT1=
EXTT2=
EXTT3=
EXTT4=
EXTT5=
EXTT6=
EXTT7=
EXTT8=
EXTT9=
EXTT10=
EXTT11=
EXTT12=
EXTT13=
PLAYORDER=
